# xmcd
#
# Track frame offsets: 
#        150
#        45043
#        96521
#        138850
#        177982
#        228051
#        272778
#
# Disc length: 4170 seconds
#
# Revision: 0
# Processed by: cddbd v1.5.1PL0 Copyright (c) Steve Scherf et al.
# Submitted via: ExactAudioCopy v0.95a5
#
DISCID=51104807
DTITLE=Linard Bardill - Lieder und Gschichte us em Rucksack vom Andrì 
DTITLE=CD1
DYEAR=1998
DGENRE=Easy Listening
TTITLE0=Der Alpabzug
TTITLE1=Ds gheimnisvolle Buech
TTITLE2=Nu im Notfall öffne
TTITLE3=Der Brief isch wichtig
TTITLE4=Wer het ds Strubeli gschtole
TTITLE5=D'Andrea und der Andrì
TTITLE6=Ds End vo der Welt
EXTD=
EXTT0=
EXTT1=
EXTT2=
EXTT3=
EXTT4=
EXTT5=
EXTT6=
PLAYORDER=
